<?xml version="1.0" standalone="no"?>
<!DOCTYPE svg PUBLIC "-//W3C//DTD SVG 20010904//EN"
 "http://www.w3.org/TR/2001/REC-SVG-20010904/DTD/svg10.dtd">
<svg version="1.0" xmlns="http://www.w3.org/2000/svg"
 width="400.000000pt" height="400.000000pt" viewBox="0 0 400.000000 400.000000"
 preserveAspectRatio="xMidYMid meet">

<g transform="translate(0.000000,400.000000) scale(0.100000,-0.100000)"
fill="#000000" stroke="none">
<path d="M1800 3859 c-647 -73 -1207 -469 -1484 -1051 -69 -143 -107 -254
-140 -399 -190 -853 232 -1721 1019 -2095 514 -244 1096 -244 1610 0 386 184
694 491 880 878 447 932 52 2051 -880 2494 -312 149 -672 210 -1005 173z m490
-145 c723 -126 1283 -687 1416 -1419 25 -140 25 -440 0 -580 -134 -735 -687
-1289 -1421 -1421 -139 -25 -441 -25 -580 0 -734 132 -1289 687 -1421 1421
-22 125 -25 419 -5 550 17 115 72 305 118 415 245 577 783 978 1409 1050 110
12 370 4 484 -16z"/>
<path d="M2610 2840 l0 -250 45 0 45 0 0 141 0 140 50 -60 c27 -33 54 -63 60
-66 6 -4 28 12 48 36 20 24 46 54 57 67 l20 24 -3 -141 -4 -141 46 0 46 0 0
252 c0 151 -4 248 -9 242 -5 -5 -48 -56 -96 -114 -48 -58 -91 -106 -95 -108
-5 -2 -52 49 -105 112 -53 64 -99 116 -101 116 -2 0 -4 -112 -4 -250z"/>
<path d="M970 2836 l0 -246 45 0 45 0 0 65 0 65 40 0 c113 0 192 99 176 220
-13 95 -65 130 -206 137 l-100 6 0 -247z m191 148 c25 -23 34 -77 20 -125 -13
-44 -35 -59 -85 -59 l-36 0 0 106 0 107 41 -6 c22 -3 49 -13 60 -23z"/>
<path d="M1350 2835 l0 -245 45 0 45 0 0 105 0 105 80 0 80 0 0 -105 0 -105
45 0 45 0 0 246 0 245 -42 -3 -43 -3 -3 -97 -3 -98 -79 0 -80 0 0 100 0 100
-45 0 -45 0 0 -245z"/>
<path d="M1898 2968 c-26 -62 -71 -173 -102 -245 l-55 -133 49 0 c47 0 49 1
61 35 l13 36 90 -3 90 -3 10 -32 c8 -32 11 -33 59 -33 35 0 48 3 44 13 -98
238 -201 477 -206 477 -4 0 -28 -51 -53 -112z m112 -235 c0 -2 -27 -3 -60 -3
l-60 0 22 58 c11 31 25 68 30 82 9 23 12 18 39 -54 16 -44 29 -81 29 -83z"/>
<path d="M2210 2836 l0 -246 45 0 45 0 0 87 0 87 62 -87 61 -87 55 0 c42 0 52
3 45 13 -45 58 -101 134 -107 144 -4 8 5 18 23 27 65 34 99 144 66 216 -29 65
-71 84 -192 88 l-103 4 0 -246z m168 163 c41 -14 60 -69 43 -122 -15 -45 -31
-58 -81 -64 l-40 -6 0 102 c0 99 0 101 24 101 12 0 37 -5 54 -11z"/>
<path d="M1995 2325 c-79 -17 -159 -49 -218 -87 -54 -35 -83 -78 -64 -97 15
-15 36 -14 157 9 84 16 109 24 125 44 39 46 151 41 201 -9 39 -40 28 -134 -20
-174 -29 -24 -17 -31 53 -31 l69 0 16 40 c76 189 -98 355 -319 305z"/>
<path d="M2010 2111 c-23 -6 -25 -12 -28 -69 l-3 -62 41 0 40 0 0 70 c0 74 -1
75 -50 61z"/>
<path d="M1470 1892 c0 -102 100 -227 234 -292 191 -93 430 -93 621 0 131 63
221 170 233 276 l5 44 -547 0 -546 0 0 -28z"/>
<path d="M1666 1514 c-11 -29 -6 -50 18 -73 26 -24 127 -68 219 -95 l57 -17 0
-130 c0 -139 -9 -179 -51 -219 -31 -28 -57 -38 -148 -56 -74 -14 -111 -34
-111 -61 0 -11 66 -13 364 -13 204 0 367 4 370 9 3 5 -2 18 -12 30 -12 15 -41
25 -102 37 -154 28 -184 67 -196 245 -5 75 -3 108 5 113 15 10 87 -32 107 -62
22 -34 20 -84 -5 -135 l-21 -42 26 -23 c14 -13 36 -22 48 -20 30 4 67 78 73
146 7 70 -15 120 -76 175 -56 51 -96 68 -260 116 -79 23 -172 53 -206 66 -72
29 -91 31 -99 9z"/>
<path d="M1886 774 c-21 -54 5 -94 102 -154 37 -24 79 -54 95 -68 l27 -26 0
34 c0 27 -11 44 -55 91 -55 58 -64 83 -45 120 10 18 7 19 -54 19 -49 0 -65 -4
-70 -16z"/>
</g>
</svg>
